<?xml version="1.0" standalone="no"?>
<!DOCTYPE svg PUBLIC "-//W3C//DTD SVG 20010904//EN"
 "http://www.w3.org/TR/2001/REC-SVG-20010904/DTD/svg10.dtd">
<svg version="1.0" xmlns="http://www.w3.org/2000/svg"
 width="800.000000pt" height="800.000000pt" viewBox="0 0 800.000000 800.000000"
 preserveAspectRatio="xMidYMid meet">
<metadata>
Created by potrace 1.14, written by Peter Selinger 2001-2017
</metadata>
<g transform="translate(0.000000,800.000000) scale(0.100000,-0.100000)"
fill="#000000" stroke="none">
<path d="M0 4000 l0 -4000 4000 0 4000 0 0 4000 0 4000 -4000 0 -4000 0 0
-4000z m4238 1371 l-3 -426 -41 -3 c-26 -2 -45 2 -52 11 -8 10 -13 122 -14
378 l-3 364 -1690 5 c-929 3 -1694 3 -1698 -1 -13 -10 -9 -3370 4 -3386 16
-18 3368 -20 3387 -1 9 9 12 75 12 236 l0 223 48 -3 47 -3 3 -282 c2 -156 2
-283 0 -284 -2 0 -802 -3 -1778 -6 -1266 -3 -1783 -2 -1803 6 l-28 11 4 1672
c3 920 5 1708 5 1751 1 71 3 77 21 77 12 0 21 4 21 9 0 5 19 12 41 16 48 8 36
24 -21 26 -24 1 -28 3 -12 6 12 2 20 9 17 14 -4 5 -5 10 -3 11 5 4 3512 13
3526 9 10 -2 12 -93 10 -430z m-255 -632 c34 -11 80 -31 102 -44 45 -26 127
-104 120 -114 -2 -4 -40 -33 -84 -65 l-80 -57 -38 30 c-140 112 -350 63 -432
-101 -72 -143 -14 -300 139 -380 65 -33 175 -37 253 -8 31 12 57 26 58 31 0 5
1 23 1 39 0 17 -1 41 -1 55 l-1 25 -115 0 -116 0 3 98 3 97 210 0 210 0 3
-209 2 -210 -37 -39 c-99 -102 -305 -151 -472 -112 -384 91 -521 571 -242 845
58 56 156 112 227 129 75 18 219 13 287 -10z m942 -10 c81 -30 163 -112 195
-194 23 -59 24 -67 24 -405 l1 -345 -105 0 -105 0 -3 108 -3 107 -149 0 -150
0 0 -105 c0 -77 -3 -105 -12 -106 -12 -1 -116 -1 -176 1 l-23 0 3 363 3 362
27 52 c88 166 285 233 473 162z m1014 16 c79 -21 153 -60 211 -112 60 -54 61
-52 -51 -128 -49 -33 -75 -46 -84 -39 -90 67 -162 91 -240 78 -183 -30 -301
-233 -225 -388 87 -180 318 -230 453 -99 35 33 41 35 59 24 39 -24 148 -113
148 -120 0 -18 -108 -112 -159 -140 -275 -146 -606 -20 -712 271 -86 235 15
498 235 610 33 17 84 37 111 44 68 17 189 17 254 -1z m-4051 -377 l2 -378 230
0 230 0 0 -105 0 -105 -340 0 -340 0 0 485 0 486 108 -3 107 -3 3 -377z m1292
277 l0 -105 -225 0 -225 0 0 -95 0 -95 185 0 185 0 0 -105 0 -105 -185 0 -185
0 0 -75 0 -75 230 0 230 0 0 -105 0 -105 -340 0 -340 0 0 485 0 485 335 0 335
0 0 -105z m3424 -97 c55 -108 104 -194 107 -190 4 4 25 41 47 82 92 174 127
237 150 274 l24 39 66 -7 c37 -3 83 -6 104 -6 32 0 35 -3 31 -21 -4 -16 -8
-17 -14 -7 -6 9 -9 6 -9 -10 0 -34 -30 -75 -45 -62 -8 7 -12 5 -12 -5 0 -8 4
-12 8 -9 11 6 21 -14 14 -26 -5 -8 -11 -7 -20 0 -11 9 -13 6 -11 -17 4 -28
-64 -170 -88 -185 -6 -4 -8 -8 -4 -8 4 0 -10 -33 -31 -72 -112 -211 -111 -209
-111 -265 0 -29 -4 -53 -10 -53 -5 0 -7 -7 -4 -15 4 -8 1 -15 -5 -15 -6 0 -11
-11 -11 -25 0 -14 -6 -25 -12 -25 -7 0 -22 -21 -32 -48 -25 -61 -50 -82 -98
-82 l-38 0 0 159 0 159 -88 164 c-49 89 -126 234 -171 321 l-83 158 122 -3
122 -3 102 -197z m-1436 -1069 c19 -12 20 -15 5 -43 -9 -17 -17 -32 -18 -34
-2 -2 -21 2 -43 9 -120 36 -210 -97 -124 -183 27 -28 40 -33 80 -33 26 0 56 3
68 8 17 6 23 1 37 -28 l17 -36 -35 -14 c-50 -22 -131 -19 -182 6 -51 25 -99
87 -108 139 -14 84 46 185 130 216 46 17 141 13 173 -7z m-948 -174 l0 -185
-37 0 -38 0 1 182 c1 101 2 184 3 186 1 1 17 2 36 2 l35 0 0 -185z m278 156
c5 -33 -15 -43 -75 -36 l-53 6 0 -29 c0 -17 -3 -37 -6 -46 -5 -14 4 -16 60
-16 l66 0 0 -35 0 -35 -59 0 -59 0 -4 -41 c-2 -22 -2 -42 1 -45 2 -2 33 -4 68
-4 l63 0 0 -30 0 -30 -105 0 -105 0 0 185 0 186 103 -3 c99 -3 102 -4 105 -27z
m223 19 c48 -13 107 -74 120 -124 15 -53 -1 -137 -33 -170 -49 -52 -87 -66
-176 -66 l-83 0 3 168 c1 92 4 175 6 185 4 14 16 17 66 17 33 0 77 -5 97 -10z
m751 -123 c2 -103 7 -139 20 -159 33 -50 125 -42 148 12 6 16 12 77 12 137 0
128 3 143 29 143 20 0 20 -5 17 -138 -3 -134 -4 -140 -31 -175 -52 -69 -160
-71 -211 -4 -22 29 -25 45 -30 159 -6 137 -3 158 24 158 16 0 18 -13 22 -133z
m523 123 c46 -18 24 -35 -39 -32 -92 6 -136 -41 -136 -143 0 -102 76 -166 162
-136 23 8 35 8 42 0 20 -20 -24 -39 -89 -39 -100 0 -151 50 -162 156 -7 62 14
129 50 161 42 38 119 53 172 33z m268 0 c31 0 57 -4 57 -10 0 -6 -33 -10 -79
-10 -56 0 -82 -4 -90 -14 -17 -21 -10 -100 9 -103 8 -1 41 -5 73 -8 76 -9 73
-25 -6 -25 -36 0 -68 -5 -75 -12 -16 -16 -16 -127 1 -133 6 -3 43 -6 81 -8 43
-2 72 -9 74 -16 3 -9 -23 -11 -100 -9 l-103 3 -2 165 c-3 187 1 196 67 186 19
-3 61 -6 93 -6z m170 -58 c-6 -62 14 -112 43 -112 8 0 14 -5 14 -11 0 -6 -8
-8 -17 -5 -10 3 -25 1 -33 -4 -8 -5 -11 -10 -6 -10 5 0 3 -7 -4 -15 -7 -8 -15
-15 -19 -15 -3 0 -6 52 -7 115 -1 103 1 115 17 115 15 0 16 -7 12 -58z m49
-94 c-7 -7 -12 -8 -12 -2 0 14 12 26 19 19 2 -3 -1 -11 -7 -17z m-52 -119 c0
-10 -4 -19 -10 -19 -5 0 -10 12 -10 26 0 14 4 23 10 19 6 -3 10 -15 10 -26z
m-10 -33 c0 -3 -4 -8 -10 -11 -5 -3 -10 -1 -10 4 0 6 5 11 10 11 6 0 10 -2 10
-4z"/>
<path d="M738 5773 c12 -2 32 -2 45 0 12 2 2 4 -23 4 -25 0 -35 -2 -22 -4z"/>
<path d="M715 5720 c-4 -7 8 -8 37 -4 57 9 61 14 10 14 -22 0 -44 -5 -47 -10z"/>
<path d="M4689 4526 c-49 -34 -59 -68 -59 -207 l0 -119 139 0 c77 0 145 2 153
5 10 4 12 31 10 118 -3 126 -11 152 -53 193 -24 23 -40 29 -92 32 -53 3 -67 0
-98 -22z"/>
<path d="M7078 4681 c-2 -17 -1 -28 3 -26 10 7 18 55 9 55 -4 0 -10 -13 -12
-29z"/>
<path d="M7001 4524 c0 -11 3 -14 6 -6 3 7 2 16 -1 19 -3 4 -6 -2 -5 -13z"/>
<path d="M6915 4359 c-4 -6 -5 -12 -2 -15 2 -3 7 2 10 11 7 17 1 20 -8 4z"/>
<path d="M4634 3407 c-2 -7 -3 -58 -2 -113 l3 -99 28 -3 c21 -3 36 5 64 33 34
34 35 38 31 87 -4 42 -11 57 -37 80 -33 29 -78 37 -87 15z"/>
</g>
</svg>
